<svg width="80" height="80" viewBox="0 0 80 80" fill="none" xmlns="http://www.w3.org/2000/svg">
<path d="M21.6667 10H58.3334C59.2174 10 60.0653 10.3512 60.6904 10.9763C61.3155 11.6014 61.6667 12.4493 61.6667 13.3333V20H18.3334V13.3333C18.3334 12.4493 18.6846 11.6014 19.3097 10.9763C19.9348 10.3512 20.7827 10 21.6667 10Z" fill="#313131"/>
<path d="M18.3334 20H61.6667V66.6667C61.6667 67.5507 61.3155 68.3986 60.6904 69.0237C60.0653 69.6488 59.2174 70 58.3334 70H21.6667C20.7827 70 19.9348 69.6488 19.3097 69.0237C18.6846 68.3986 18.3334 67.5507 18.3334 66.6667V20Z" fill="#494949"/>
<path d="M1.66669 30H18.3334V66.6667H5.00002C4.11597 66.6667 3.26812 66.3155 2.643 65.6904C2.01788 65.0652 1.66669 64.2174 1.66669 63.3333V30Z" fill="#313131"/>
<path d="M5.00002 23.3334H18.3334V30H1.66669V26.6667C1.66669 25.7827 2.01788 24.9348 2.643 24.3097C3.26812 23.6846 4.11597 23.3334 5.00002 23.3334Z" fill="#272727"/>
<path d="M75 66.6666H61.6667V30H78.3334V63.3333C78.3334 64.2173 77.9822 65.0652 77.3571 65.6903C76.7319 66.3154 75.8841 66.6666 75 66.6666Z" fill="#313131"/>
<path d="M78.3334 30L61.6667 30V23.3333H75C75.8841 23.3333 76.7319 23.6845 77.3571 24.3096C77.9822 24.9348 78.3334 25.7826 78.3334 26.6667V30Z" fill="#272727"/>
<path d="M18.3334 40H8.33335C7.89133 40 7.4674 39.8244 7.15484 39.5118C6.84228 39.1992 6.66669 38.7753 6.66669 38.3333C6.66669 37.8913 6.84228 37.4673 7.15484 37.1548C7.4674 36.8422 7.89133 36.6666 8.33335 36.6666H18.3334V40ZM18.3334 48.3333H8.33335C7.89133 48.3333 7.4674 48.1577 7.15484 47.8451C6.84228 47.5326 6.66669 47.1087 6.66669 46.6666C6.66669 46.2246 6.84228 45.8007 7.15484 45.4881C7.4674 45.1756 7.89133 45 8.33335 45H18.3334V48.3333ZM18.3334 56.6666H8.33335C7.89133 56.6666 7.4674 56.491 7.15484 56.1785C6.84228 55.8659 6.66669 55.442 6.66669 55C6.66669 54.5579 6.84228 54.134 7.15484 53.8214C7.4674 53.5089 7.89133 53.3333 8.33335 53.3333H18.3334V56.6666ZM61.6667 40H71.6667C72.1087 40 72.5326 39.8244 72.8452 39.5118C73.1578 39.1992 73.3334 38.7753 73.3334 38.3333C73.3334 37.8913 73.1578 37.4673 72.8452 37.1548C72.5326 36.8422 72.1087 36.6666 71.6667 36.6666H61.6667V40ZM61.6667 48.3333H71.6667C72.1087 48.3333 72.5326 48.1577 72.8452 47.8451C73.1578 47.5326 73.3334 47.1087 73.3334 46.6666C73.3334 46.2246 73.1578 45.8007 72.8452 45.4881C72.5326 45.1756 72.1087 45 71.6667 45H61.6667V48.3333ZM61.6667 56.6666H71.6667C72.1087 56.6666 72.5326 56.491 72.8452 56.1785C73.1578 55.8659 73.3334 55.442 73.3334 55C73.3334 54.5579 73.1578 54.134 72.8452 53.8214C72.5326 53.5089 72.1087 53.3333 71.6667 53.3333H61.6667V56.6666Z" fill="#777777"/>
<path d="M31.6667 35.6834L33.8167 37.85C33.9724 38.0045 34.1571 38.1267 34.3602 38.2096C34.5632 38.2926 34.7807 38.3346 35 38.3334C35.3311 38.3353 35.6552 38.2386 35.931 38.0556C36.2069 37.8726 36.422 37.6116 36.549 37.3058C36.6759 37.0001 36.7089 36.6635 36.6438 36.3389C36.5787 36.0143 36.4184 35.7165 36.1833 35.4834L34.0167 33.3334L36.1833 31.1834C36.4972 30.8695 36.6735 30.4439 36.6735 30C36.6735 29.5562 36.4972 29.1305 36.1833 28.8167C35.8695 28.5029 35.4438 28.3265 35 28.3265C34.5562 28.3265 34.1305 28.5029 33.8167 28.8167L31.6667 30.9834L29.5167 28.8167C29.3613 28.6613 29.1768 28.538 28.9738 28.4539C28.7707 28.3698 28.5531 28.3265 28.3333 28.3265C28.1136 28.3265 27.896 28.3698 27.6929 28.4539C27.4899 28.538 27.3054 28.6613 27.15 28.8167C26.9946 28.9721 26.8713 29.1566 26.7872 29.3596C26.7031 29.5626 26.6599 29.7803 26.6599 30C26.6599 30.2198 26.7031 30.4374 26.7872 30.6404C26.8713 30.8435 26.9946 31.028 27.15 31.1834L29.3167 33.3334L27.15 35.4834C26.915 35.7165 26.7547 36.0143 26.6895 36.3389C26.6244 36.6635 26.6574 37.0001 26.7844 37.3058C26.9113 37.6116 27.1265 37.8726 27.4023 38.0556C27.6782 38.2386 28.0023 38.3353 28.3333 38.3334C29.25 38.3334 29.4833 37.8834 31.6667 35.6834ZM50.6833 33.3334L52.85 31.1834C53.1638 30.8695 53.3402 30.4439 53.3402 30C53.3402 29.5562 53.1638 29.1305 52.85 28.8167C52.5362 28.5029 52.1105 28.3265 51.6667 28.3265C51.2228 28.3265 50.7972 28.5029 50.4833 28.8167L48.3333 30.9834L46.1833 28.8167C45.8695 28.5029 45.4438 28.3265 45 28.3265C44.5562 28.3265 44.1305 28.5029 43.8167 28.8167C43.5028 29.1305 43.3265 29.5562 43.3265 30C43.3265 30.4439 43.5028 30.8695 43.8167 31.1834L45.9833 33.3334L43.8167 35.4834C43.5028 35.7972 43.3265 36.2229 43.3265 36.6667C43.3265 37.1105 43.5028 37.5362 43.8167 37.85C44.1305 38.1639 44.5562 38.3402 45 38.3402C45.4438 38.3402 45.8695 38.1639 46.1833 37.85L48.3333 35.6834L50.4833 37.85C50.7972 38.1639 51.2228 38.3402 51.6667 38.3402C52.1105 38.3402 52.5362 38.1639 52.85 37.85C53.1638 37.5362 53.3402 37.1105 53.3402 36.6667C53.3402 36.2229 53.1638 35.7972 52.85 35.4834L50.6833 33.3334ZM29.0833 48.6167C28.879 48.7263 28.6998 48.8774 28.5571 49.0602C28.4145 49.243 28.3115 49.4536 28.2549 49.6785C28.1983 49.9034 28.1893 50.1376 28.2283 50.3662C28.2674 50.5948 28.3538 50.8127 28.4818 51.006C28.6099 51.1993 28.777 51.3638 28.9723 51.4889C29.1675 51.6139 29.3868 51.6969 29.6159 51.7324C29.8451 51.7679 30.0792 51.7552 30.3031 51.6951C30.5271 51.635 30.7361 51.5288 30.9167 51.3834C33.607 49.5911 36.7674 48.6348 40 48.6348C43.2326 48.6348 46.393 49.5911 49.0833 51.3834C49.3517 51.5713 49.6723 51.6704 50 51.6667C50.3561 51.6639 50.7019 51.5472 50.9869 51.3336C51.2718 51.12 51.4808 50.8208 51.5833 50.4798C51.6858 50.1388 51.6764 49.7739 51.5564 49.4386C51.4364 49.1033 51.2122 48.8153 50.9167 48.6167C47.6886 46.4492 43.8883 45.2917 40 45.2917C36.1117 45.2917 32.3115 46.4492 29.0833 48.6167Z" fill="#999999"/>
<path d="M23.3336 13.333C24.2539 13.3332 24.9996 14.0796 24.9996 15C24.9996 15.9203 24.2539 16.6668 23.3336 16.667C22.4132 16.667 21.6667 15.9204 21.6666 15C21.6666 14.0795 22.4131 13.333 23.3336 13.333Z" fill="#777777"/>
<path d="M29.9996 13.333C30.9201 13.333 31.6666 14.0795 31.6666 15C31.6666 15.9204 30.9201 16.667 29.9996 16.667C29.0794 16.6668 28.3337 15.9203 28.3336 15C28.3336 14.0797 29.0793 13.3332 29.9996 13.333Z" fill="#777777"/>
<path d="M36.6666 13.333C37.5871 13.3331 38.3336 14.0796 38.3336 15C38.3336 15.9204 37.587 16.6669 36.6666 16.667C35.7462 16.667 34.9997 15.9204 34.9996 15C34.9996 14.0795 35.7462 13.333 36.6666 13.333Z" fill="#777777"/>
</svg>
